<svg xmlns="http://www.w3.org/2000/svg" viewBox="0 0 800 800">
  <!-- 背景 -->
  <rect width="800" height="800" fill="#FFF0F5" />
  
  <!-- 标题区 -->
  <rect x="50" y="50" width="700" height="150" rx="20" fill="#FF2C55" />
  <text x="400" y="130" font-family="Arial" font-size="40" font-weight="bold" text-anchor="middle" fill="white">
    Word党终极救星：一键解锁AI写作
  </text>
  <text x="400" y="180" font-family="Arial" font-size="28" font-weight="bold" text-anchor="middle" fill="white">
    再也不用熬夜肝论文啦！
  </text>
  
  <!-- 内容区 -->
  <rect x="50" y="220" width="700" height="520" rx="20" fill="white" stroke="#FFD1DC" stroke-width="5" />
  
  <!-- 功能亮点 -->
  <text x="100" y="270" font-family="Arial" font-size="28" font-weight="bold" fill="#FF2C55">✨ 震惊！这个插件让我论文提前一周交稿</text>
  
  <!-- 功能图标 -->
  <circle cx="120" cy="330" r="30" fill="#FF2C55" />
  <text x="120" y="340" font-family="Arial" font-size="24" font-weight="bold" text-anchor="middle" fill="white">1</text>
  <text x="170" y="338" font-family="Arial" font-size="24" font-weight="bold" fill="#333">一键生成论文框架</text>
  
  <circle cx="120" cy="400" r="30" fill="#FF2C55" />
  <text x="120" y="410" font-family="Arial" font-size="24" font-weight="bold" text-anchor="middle" fill="white">2</text>
  <text x="170" y="408" font-family="Arial" font-size="24" font-weight="bold" fill="#333">DeepSeek-R1超强校对</text>
  
  <circle cx="120" cy="470" r="30" fill="#FF2C55" />
  <text x="120" y="480" font-family="Arial" font-size="24" font-weight="bold" text-anchor="middle" fill="white">3</text>
  <text x="170" y="478" font-family="Arial" font-size="24" font-weight="bold" fill="#333">标书一键智能总结</text>
  
  <circle cx="120" cy="540" r="30" fill="#FF2C55" />
  <text x="120" y="550" font-family="Arial" font-size="24" font-weight="bold" text-anchor="middle" fill="white">4</text>
  <text x="170" y="548" font-family="Arial" font-size="24" font-weight="bold" fill="#333">AI一键审校避免低级错误</text>
  
  <circle cx="120" cy="610" r="30" fill="#FF2C55" />
  <text x="120" y="620" font-family="Arial" font-size="24" font-weight="bold" text-anchor="middle" fill="white">5</text>
  <text x="170" y="618" font-family="Arial" font-size="24" font-weight="bold" fill="#333">内置海量论文写作模板</text>
  
  <!-- 底部 -->
  <rect x="50" y="690" width="700" height="60" rx="10" fill="#FFD1DC" />
  <text x="400" y="730" font-family="Arial" font-size="24" font-weight="bold" text-anchor="middle" fill="#333">
    
  </text>
  
  <!-- 右上标签 -->
  <rect x="600" y="20" width="150" height="40" rx="20" fill="#FFD1DC" />
  <text x="675" y="47" font-family="Arial" font-size="20" font-weight="bold" text-anchor="middle" fill="#FF2C55">
    #效率工具
  </text>
</svg>